<svg width="71" height="80" viewBox="0 0 71 80" fill="none" xmlns="http://www.w3.org/2000/svg">
    <path fill-rule="evenodd" clip-rule="evenodd"
          d="M29.7866 9.36709C27.2802 11.0225 24.3116 13.5582 20.0173 17.239L15.4844 21.1244C10.5595 25.3457 9.00033 26.7843 8.16554 28.5993C7.33076 30.4143 7.2532 32.5344 7.2532 39.0209V58.2421C7.2532 62.6183 7.2609 65.5356 7.55278 67.7065C7.83063 69.7732 8.3048 70.6126 8.84639 71.1542C9.38797 71.6958 10.2274 72.1699 12.294 72.4478C14.465 72.7397 17.3823 72.7474 21.7585 72.7474H48.9558C53.332 72.7474 56.2493 72.7397 58.4203 72.4478C60.4869 72.1699 61.3263 71.6958 61.8679 71.1542C62.4095 70.6126 62.8837 69.7732 63.1615 67.7065C63.4534 65.5356 63.4611 62.6183 63.4611 58.2421V39.0209C63.4611 32.5344 63.3835 30.4143 62.5487 28.5993C61.714 26.7843 60.1547 25.3457 55.2299 21.1244L50.697 17.239C46.4026 13.5582 43.4341 11.0225 40.9276 9.36709C38.5061 7.76775 36.8923 7.25263 35.3571 7.25263C33.822 7.25263 32.2082 7.76775 29.7866 9.36709ZM25.7896 3.31526C28.8488 1.29479 31.8618 0 35.3571 0C38.8525 0 41.8655 1.29479 44.9246 3.31526C47.8555 5.25096 51.1667 8.08926 55.2353 11.5768L59.9498 15.6178C60.1419 15.7824 60.3315 15.9447 60.5186 16.1049C64.6385 19.6321 67.5563 22.13 69.1378 25.5688C70.7194 29.0075 70.7172 32.8484 70.714 38.272C70.7139 38.5183 70.7137 38.7679 70.7137 39.0209V58.4908C70.7139 62.5522 70.714 65.9615 70.3495 68.6729C69.9635 71.5438 69.11 74.1688 66.9963 76.2826C64.8826 78.3963 62.2575 79.2498 59.3867 79.6357C56.6753 80.0003 53.266 80.0001 49.2045 80H21.5098C17.4483 80.0001 14.039 80.0003 11.3276 79.6357C8.45677 79.2498 5.83173 78.3963 3.718 76.2826C1.60427 74.1688 0.750797 71.5438 0.364821 68.6729C0.000288338 65.9616 0.000414577 62.5523 0.000564582 58.4909L0.000570634 39.0209C0.000570634 38.7679 0.000424088 38.5183 0.000279703 38.272C-0.00290152 32.8484 -0.0051542 29.0075 1.57644 25.5688C3.15802 22.13 6.07574 19.6321 10.1957 16.1049C10.3828 15.9447 10.5724 15.7824 10.7645 15.6178L15.479 11.5767C19.5476 8.08922 22.8588 5.25095 25.7896 3.31526Z"
          fill="#879CB3"/>
    <path fill-rule="evenodd" clip-rule="evenodd"
          d="M20.3986 52.8026C20.3986 48.7971 23.6457 45.55 27.6512 45.55H43.0631C47.0686 45.55 50.3157 48.7971 50.3157 52.8026V76.3737C50.3157 78.3764 48.6921 80 46.6894 80C44.6866 80 43.0631 78.3764 43.0631 76.3737V52.8026H27.6512V76.3737C27.6512 78.3764 26.0277 80 24.0249 80C22.0222 80 20.3986 78.3764 20.3986 76.3737V52.8026Z"
          fill="#879CB3"/>
</svg>
